HIERARCHY
ROOT Hips
{
	OFFSET 0.0000 0.0000 0.0000
	CHANNELS 6 Xposition Yposition Zposition Zrotation Xrotation Yrotation
	JOINT Ab
	{
		OFFSET -0.0000 8.0846 -0.0000
		CHANNELS 3 Zrotation Xrotation Yrotation
		JOINT Chest
		{
			OFFSET -0.0000 25.0068 -0.0000
			CHANNELS 3 Zrotation Xrotation Yrotation
			JOINT Neck
			{
				OFFSET -0.0000 25.0068 0.0000
				CHANNELS 3 Zrotation Xrotation Yrotation
				JOINT Head
				{
					OFFSET -0.0000 10.7556 0.0000
					CHANNELS 3 Zrotation Xrotation Yrotation
					End Site
					{
						OFFSET -0.0000 16.6222 0.0000
					}
				}
			}
			JOINT LeftCollar
			{
				OFFSET -0.0000 25.0068 0.0000
				CHANNELS 3 Zrotation Xrotation Yrotation
				JOINT LeftShoulder
				{
					OFFSET 19.5556 -0.0000 0.0000
					CHANNELS 3 Zrotation Xrotation Yrotation
					JOINT LeftElbow
					{
						OFFSET 27.1828 0.0000 0.0000
						CHANNELS 3 Zrotation Xrotation Yrotation
						JOINT LeftWrist
						{
							OFFSET 23.3157 0.0000 0.0000
							CHANNELS 3 Zrotation Xrotation Yrotation
							End Site
							{
								OFFSET 0.0000 -14.6667 0.0000
							}
						}
					}
				}
			}
			JOINT RightCollar
			{
				OFFSET -0.0000 25.0068 0.0000
				CHANNELS 3 Zrotation Xrotation Yrotation
				JOINT RightShoulder
				{
					OFFSET -19.5556 0.0000 0.0000
					CHANNELS 3 Zrotation Xrotation Yrotation
					JOINT RightElbow
					{
						OFFSET -27.1828 0.0000 0.0000
						CHANNELS 3 Zrotation Xrotation Yrotation
						JOINT RightWrist
						{
							OFFSET -23.3157 0.0000 0.0000
							CHANNELS 3 Zrotation Xrotation Yrotation
							End Site
							{
								OFFSET -0.0000 -14.6667 0.0000
							}
						}
					}
				}
			}
		}
	}
	JOINT LeftHip
	{
		OFFSET 11.7333 0.0000 0.0000
		CHANNELS 3 Zrotation Xrotation Yrotation
		JOINT LeftKnee
		{
			OFFSET -0.0000 -40.8688 0.0000
			CHANNELS 3 Zrotation Xrotation Yrotation
			JOINT LeftAnkle
			{
				OFFSET -0.0000 -44.4337 0.0000
				CHANNELS 3 Zrotation Xrotation Yrotation
				End Site
				{
					OFFSET -0.0000 -4.8889 16.6222
				}
			}
		}
	}
	JOINT RightHip
	{
		OFFSET -11.7333 0.0000 0.0000
		CHANNELS 3 Zrotation Xrotation Yrotation
		JOINT RightKnee
		{
			OFFSET -0.0000 -40.8688 0.0000
			CHANNELS 3 Zrotation Xrotation Yrotation
			JOINT RightAnkle
			{
				OFFSET -0.0000 -44.4337 0.0000
				CHANNELS 3 Zrotation Xrotation Yrotation
				End Site
				{
					OFFSET -0.0000 -4.8889 16.6222
				}
			}
		}
	}
}
MOTION
Frames: 24
Frame Time: 0.010000
2.9010 87.9368 131.9434 0.5092 354.5825 176.8654 1.3597 10.2743 1.8614 357.4934 7.2913 2.1501 5.1813 338.1000 1.4845 354.5384 356.8125 0.3286 346.3728 357.0881 24.8183 320.5507 55.5134 355.3090 41.3835 343.9858 320.4365 85.6319 355.2930 7.5622 16.9571 358.6956 351.0550 37.8684 56.3193 36.1532 325.3632 343.6072 49.5674 271.7729 348.3439 12.6718 6.5845 324.5492 0.2465 328.7582 62.9036 23.6822 357.8571 342.9580 20.3454 3.6278 350.1387 0.3035 357.7476 26.5172 14.5759 352.1118 336.0569 334.2546 
3.0411 87.7018 131.0343 0.5823 354.6602 177.0604 1.7347 10.7063 1.6875 356.8897 7.1811 2.0483 4.7825 338.4719 1.3174 354.9781 356.2913 0.2539 346.5899 357.0874 24.8760 318.9259 53.5470 358.1163 40.9357 344.2124 319.4545 86.0566 356.0618 7.0726 16.9219 358.7394 351.4533 35.5090 56.3122 38.2209 325.0424 343.0578 50.8184 272.1841 348.0791 12.4943 6.6993 323.1133 0.0285 329.7426 61.4564 22.5522 358.2421 342.8218 20.8853 3.6870 350.9211 0.0140 357.7618 26.3382 14.3556 352.2457 335.7214 334.7291 
3.1905 87.4464 130.0839 0.7440 354.7176 177.2484 1.8494 10.8682 1.7685 356.7344 7.4187 2.1591 4.4382 338.8216 1.1875 355.2548 355.6870 0.1868 346.4984 356.9591 25.7126 319.3733 54.6008 358.3416 41.8731 343.9045 320.4179 86.0225 355.8903 7.6902 16.7860 358.7913 351.9043 32.9072 56.1129 40.5748 324.8544 342.5555 52.0403 272.1584 348.1211 12.1769 6.9172 321.7681 0.0415 331.2887 59.8844 20.9432 359.2217 343.3672 21.3271 3.8504 351.7157 359.7994 357.8068 26.1628 14.0281 352.2626 335.3380 335.1339 
3.3337 87.1820 129.1055 0.9498 354.7866 177.3273 1.9588 11.0122 1.9093 356.6357 7.7034 2.3296 3.9211 339.1053 0.9804 355.7678 355.1351 0.0866 346.4137 356.8244 26.4521 319.8892 55.8397 358.2227 42.7816 343.7705 321.4564 85.8801 355.9499 8.6553 16.7117 358.8389 352.1472 29.9233 55.8293 43.3390 324.5900 342.0432 52.9525 272.3699 348.0497 11.7124 7.2497 320.6447 0.2225 333.1589 58.0639 18.8999 0.4087 344.1441 21.5311 4.0691 352.5299 359.7606 357.9167 26.0348 13.9264 352.2088 334.8621 335.1056 
3.4309 86.8866 128.0990 1.0162 354.9272 177.2004 1.9270 11.2039 2.1349 356.4511 7.9525 2.5792 3.6681 339.5985 0.9002 356.0322 354.3731 0.0581 346.2555 356.7342 26.6144 319.2637 55.3748 359.2166 43.0121 344.0220 321.3468 86.3446 356.3917 9.4118 16.8148 358.8737 352.4756 27.0592 55.3951 45.8048 324.4665 341.6485 53.8532 272.5493 348.0668 11.3609 7.5161 319.8241 0.5129 335.1196 55.8838 16.7389 0.9542 345.0762 21.8209 4.1007 353.3751 359.7961 358.0472 26.0074 14.1747 352.4579 334.2521 334.9181 
3.4901 86.5601 127.0101 1.0617 355.2303 176.9651 2.0669 11.4032 2.2586 355.9997 8.5350 2.7712 3.1649 339.7188 0.7255 356.5037 353.9162 359.9878 346.3226 356.7296 26.7995 318.4024 55.0381 0.0098 43.2696 344.0115 321.1463 86.8751 356.8206 10.4860 16.8642 358.9090 352.7862 24.3776 54.9175 48.3269 324.3093 341.2266 54.6793 272.5673 348.2276 11.2993 7.7302 319.3295 0.9230 336.9879 53.4616 15.3982 1.3895 345.3464 21.6357 4.0428 354.4715 359.8094 358.1977 25.9474 14.4949 351.7240 334.0450 334.5552 
3.5757 86.2309 125.8581 1.2359 355.4476 176.8899 2.3391 11.4014 2.3006 355.6694 9.0401 2.8829 2.3206 340.0500 0.5025 357.3729 353.5343 359.9663 346.2598 356.7443 26.4749 316.7442 53.4967 1.1473 42.6589 344.3703 320.2522 88.4789 356.6664 10.9438 17.1021 358.9346 353.2698 22.1128 54.3450 50.1238 324.3733 341.0199 55.4056 272.3441 348.1894 11.1076 7.9785 318.9678 1.1767 338.7769 50.9254 14.2097 1.3248 345.9559 21.6903 4.1352 355.6097 359.6919 358.3185 25.7334 14.7042 351.3665 333.6548 334.3169 
3.6557 85.9057 124.7012 1.4419 355.6603 176.6879 2.4438 11.4783 2.5313 355.4775 9.5111 3.1611 1.8422 340.1273 0.3669 357.6524 353.3476 359.9236 346.1268 356.7076 26.4125 315.6910 52.5962 1.9472 42.1025 344.4327 319.7163 88.7967 356.5832 10.3051 17.2576 358.9715 353.5397 19.5783 53.8139 52.4295 324.4322 340.9087 55.6803 272.3054 347.9007 10.8801 8.3445 318.7974 1.5965 340.3348 48.4213 13.1300 0.9578 345.9267 21.3699 4.2081 356.7887 359.6437 358.5173 25.4223 14.7890 350.9548 333.4828 334.1804 
3.7051 85.5710 123.5387 1.5896 355.7522 176.4711 2.5561 11.5134 2.6904 355.2790 9.7701 3.3591 1.1401 340.3182 0.1480 358.0730 353.1796 359.8509 346.1041 356.7425 26.1355 314.1354 52.1122 3.1461 41.6939 344.4182 319.8268 88.5316 356.2775 9.1596 17.3991 359.0137 353.8169 17.7137 53.3259 54.0882 324.5199 340.8683 55.8983 272.5792 347.7384 10.7787 8.5935 318.6620 1.9255 341.9067 45.7808 11.9666 0.4571 346.3157 21.0993 4.2112 357.7319 359.3912 358.5903 25.3175 15.1171 350.8142 333.0914 334.0308 
3.7238 85.2387 122.3514 1.6574 355.6877 176.2361 2.6547 11.4111 2.7793 355.0659 9.8707 3.4750 0.3117 340.5521 359.9487 358.6021 353.1021 359.8303 346.1399 356.8212 25.6137 311.9653 51.2358 4.7414 41.1262 344.5742 319.8975 88.4437 356.0994 7.9980 17.5525 359.0607 354.1829 16.2468 53.0292 55.3470 324.6680 340.9765 55.8751 272.6338 347.3628 10.7939 8.7138 318.5489 2.2375 343.5357 42.9659 10.7489 359.9872 346.7114 21.0354 4.1591 358.4309 359.0612 358.5458 25.3973 15.5082 350.9186 332.6177 334.2124 
3.7279 84.9047 121.1186 1.7191 355.5772 175.9128 2.6355 11.1666 2.9591 354.9582 10.0643 3.6668 359.6532 340.4992 359.8827 358.9164 353.2646 359.8954 345.8309 356.7534 25.0619 310.3342 49.2535 6.1241 39.8171 345.1690 318.9521 89.1724 356.3886 7.0694 17.6937 359.0938 354.6417 15.2343 52.7655 56.2041 324.9118 341.2050 55.7202 272.5901 346.9792 10.8043 8.8237 318.6069 2.3404 344.9559 40.0863 9.9096 359.8703 347.1537 21.0571 4.1044 359.1357 358.8363 358.5237 25.3778 15.8483 350.8300 332.3471 334.3004 
3.7620 84.5852 119.7835 1.9061 355.6376 175.4966 2.6411 10.9358 3.1796 354.9255 10.5448 3.9062 359.0084 339.8598 359.8305 359.1483 353.7846 359.9753 345.5450 356.6851 24.8052 308.8565 48.6250 6.8166 39.1053 345.3582 319.7426 88.3697 355.8406 5.4396 17.8055 359.1492 354.9320 14.5155 52.4221 56.8784 325.3564 341.6311 55.4184 272.5869 346.6027 11.2696 9.1260 319.0888 2.5856 346.2214 37.3486 9.5320 358.8649 347.6441 20.4474 4.2154 0.1139 358.8857 358.4451 25.3810 15.9227 350.2133 331.9305 334.1876 
3.7609 84.2945 118.4498 2.0049 355.6289 175.1140 2.6750 10.8212 3.3049 354.6884 10.5129 4.0514 358.7314 339.8396 359.8893 359.1866 353.8604 0.0891 345.2376 356.6924 23.8515 307.2777 45.6952 7.8230 37.1045 346.2862 318.3873 89.2892 356.4255 3.9469 18.0355 359.1960 355.3560 14.8873 52.3590 56.3264 325.8845 342.0674 55.1696 272.3820 346.5430 12.0196 9.1819 319.6110 2.5564 347.7098 34.6617 8.5495 358.9242 347.7022 20.6622 4.2069 1.0247 358.9383 358.3329 25.4167 17.1425 350.4474 331.8593 333.5002 
3.7418 83.9894 117.0906 2.0430 355.3747 174.6262 2.6963 10.3821 3.4642 354.3176 10.5352 4.2363 358.6417 339.6340 0.0780 359.3024 353.9815 0.3060 345.0555 356.7625 23.0487 305.6311 43.2136 8.7327 35.5014 346.8422 318.0202 88.9528 356.3462 2.0521 18.3322 359.2380 355.7240 15.1858 52.2363 55.9343 326.6162 342.6976 54.6186 272.2957 346.8557 12.5464 9.2134 320.0061 2.5002 349.2013 32.2591 7.3637 358.5296 347.6049 20.8474 4.1309 1.6482 359.1138 358.2892 25.4879 17.9326 350.4768 331.5220 332.9462 
3.6825 83.6759 115.6833 2.0609 355.0814 174.1401 2.8230 9.8026 3.6358 353.7605 10.6794 4.4631 358.5952 339.2289 0.1681 359.3628 354.1581 0.4012 344.8450 356.8205 22.4370 304.4119 41.7327 9.2191 34.2036 347.2806 318.8914 88.5066 355.5645 0.1445 18.7336 359.2443 355.7140 14.4370 52.2856 56.6422 327.1921 343.3512 53.2740 272.0323 346.9628 12.6945 9.1211 320.4311 2.1382 350.5663 30.1558 6.5568 357.6493 347.0136 22.2509 3.9768 2.2214 359.2964 358.2182 25.5977 18.2822 350.9182 330.9992 333.1117 
3.6141 83.3846 114.2130 2.1295 355.0016 173.7535 2.9893 9.4590 3.7012 353.2416 10.7374 4.5848 358.4344 338.7338 0.1408 359.5843 354.4519 0.4197 344.4194 356.7909 21.7326 303.6776 40.1428 9.5821 32.7557 348.0074 319.8458 88.7396 355.0424 358.6563 19.1546 359.2287 355.5797 14.0246 52.4315 56.9408 327.6839 344.0181 51.8279 271.8924 346.8390 13.1253 8.9369 321.1756 1.1782 351.6346 28.4200 6.2737 356.2081 345.9825 25.5107 3.8421 3.0357 359.4562 358.2424 25.7087 17.5631 352.0535 330.8607 334.3766 
3.5325 83.1040 112.7085 2.1231 354.8399 173.4015 3.0342 8.9892 3.7497 352.7303 10.7648 4.6743 358.4941 337.9987 0.2286 359.7863 355.0493 0.5079 343.9438 356.8100 20.5548 302.8054 36.5245 10.4458 30.6154 348.9995 319.6739 88.8257 355.4481 356.8122 19.6211 359.2033 355.5688 14.5346 52.3878 56.2526 328.4018 344.8572 50.7075 271.9496 346.7170 13.6512 8.7030 321.8506 359.9095 352.4190 27.1913 5.8004 355.7151 345.6403 25.6247 3.6295 3.6480 359.6094 358.1986 26.1905 17.7772 352.7392 330.9306 334.5793 
3.4516 82.8431 111.1482 2.1261 354.7650 173.0383 3.0041 8.5960 3.7991 352.3037 10.6523 4.7432 358.6478 337.5606 0.3201 359.9588 355.3534 0.5697 343.6476 356.9226 19.5549 301.8471 33.6183 10.4808 28.7357 349.9671 320.7803 88.8437 354.8443 354.8365 20.0503 359.2009 355.5910 15.6088 52.2982 54.9838 329.4271 345.8608 49.5312 271.5577 346.3859 14.2503 8.4556 322.7689 358.7324 352.9272 26.3635 5.3635 355.2160 345.3524 25.8637 3.4370 4.2331 359.6816 357.9279 26.7411 17.6520 353.8861 331.2746 335.5837 
3.3382 82.6131 109.6484 1.9994 354.3018 172.5697 2.7721 7.8779 3.9440 352.0747 10.3828 4.8552 358.7785 336.9885 0.3425 359.9857 355.9391 0.5792 343.2660 356.9964 18.6148 300.8902 31.2600 10.3044 27.3816 350.7734 322.6375 88.5822 354.2665 353.3768 20.4048 359.1621 355.3986 16.4601 52.2598 53.9636 330.3400 346.7345 48.1064 271.5346 345.9571 15.1011 8.2315 322.9529 358.1684 352.9286 26.7759 5.5308 357.5898 348.2063 24.3652 3.1278 4.0964 359.7417 357.7187 27.6994 17.7073 354.8112 331.8363 336.4166 
3.2112 82.4097 108.1077 1.9017 353.9718 172.1418 2.5177 7.2780 4.1111 351.9348 10.0655 4.9813 358.8891 336.5323 0.2722 0.0612 356.4085 0.4889 342.7806 357.0925 17.3461 300.2382 27.9625 10.1727 25.5519 351.8052 324.3974 88.5141 353.9223 351.5323 20.6508 359.1424 355.3142 18.5978 52.1365 51.6290 331.3199 347.5962 46.8114 271.6829 345.2864 16.7427 8.2008 322.9516 358.0700 352.1730 28.1319 5.0563 0.1059 349.6599 23.6983 2.8568 3.9246 359.6730 357.2569 29.0681 17.9643 356.2249 332.5618 337.6675 
3.1846 82.2911 106.9962 2.0040 354.1593 172.0124 2.3986 7.2111 4.1102 351.9127 9.8093 4.9550 359.1873 336.1042 0.2435 359.9741 356.7729 0.3944 342.2346 357.2283 15.6040 299.8804 23.7317 10.0001 23.5782 352.8099 325.7017 88.1294 353.7998 349.6556 20.8844 359.1142 355.2254 21.4767 51.7203 48.6107 332.4464 348.5258 45.5894 271.8672 344.8483 18.6744 8.4636 323.3685 358.0663 351.0863 29.1250 4.1570 1.1471 349.0239 24.0125 2.9360 4.1447 359.5111 356.7931 30.2509 18.0257 357.4361 333.0017 338.5418 
3.1217 82.1606 105.5732 2.0299 354.3735 171.7859 2.0348 7.1478 4.1742 352.0574 9.5430 4.9630 359.5581 335.4645 0.3114 359.8309 357.4386 0.3940 341.6476 357.3975 13.6704 299.7184 17.5232 10.0680 21.1012 353.9561 326.2054 87.6689 354.1320 346.8120 20.9838 359.1114 355.1849 24.4565 51.0069 45.4513 333.4454 349.2782 44.4892 272.5004 344.6475 20.1762 8.8085 323.6399 358.3596 350.2514 30.6115 3.6053 1.4637 348.6380 23.3692 2.9022 4.2772 359.3191 356.1496 31.8704 18.0117 359.2172 333.5341 339.6932 
2.8252 82.0568 103.2355 1.5194 354.4360 171.6184 1.2739 6.8394 4.1752 351.8325 9.2828 4.9107 0.0326 334.7694 0.1977 359.9251 358.1472 0.1716 341.1605 357.6555 11.4601 299.9235 10.6983 10.1702 18.4357 355.1090 326.7264 88.6673 353.9839 343.7652 21.1236 359.0899 355.2264 28.9436 49.9790 40.6031 334.0736 349.7015 43.7870 273.3208 344.1231 22.3562 8.0865 323.8242 359.2443 350.2834 32.7602 3.3050 0.5451 350.0673 24.4847 2.0495 3.9688 358.9779 355.4935 34.7059 16.8592 2.2932 334.3268 342.5082 
2.6597 82.1399 101.6243 1.1268 354.7338 171.7290 0.3982 6.8514 4.2296 351.9948 9.3202 4.9042 0.9477 333.2837 0.2937 359.3833 359.3555 0.0271 341.0046 358.0987 8.2549 300.7196 358.0815 11.6506 13.1207 357.1576 324.8794 88.8760 354.6527 336.0447 21.1595 359.0761 355.0137 32.7465 48.2824 36.8007 334.9450 350.2630 43.0458 274.1913 344.3971 23.7494 7.1978 324.4151 359.7479 351.2327 33.7113 3.6852 358.8459 349.8064 22.9288 1.5618 3.4187 359.0410 354.9601 37.5803 17.1208 4.3753 336.3118 342.8398 
